#!OML:ASF E:\emotionWalksFemale\Project 1\Capture day 1\Session 1\Female1.ASF
:FULLY-SPECIFIED
:DEGREES
242
root 9.10247 12.9509 23.0314 205.993 -3.80474 -178.545
lowerback 26.4867 1.67036 0.760677
upperback -1.82741 2.36587 0.30955
thorax -16.3417 0.92505 -0.977381
lowerneck -7.64166 -3.34697 -6.10539
upperneck -23.2973 -6.24018 7.38124
head -5.39269 -4.32848 3.63302
rclavicle 1.05356e-014 -4.57205e-015
rhumerus -13.1189 -0.248449 -81.9346
rradius 27.3187
rwrist 31.3596
rhand -8.16467 -70.3093
rfingers 7.12502
rthumb 17.7504 99.5192
lclavicle 1.05356e-014 -4.57205e-015
lhumerus -27.5853 13.8382 80.9165
lradius 32.9551
lwrist -11.9687
lhand -3.27908 -42.2699
lfingers 7.12502
lthumb 22.4461 -13.5542
rfemur -66.0644 -2.18771 30.5221
rtibia 80.857
rfoot -33.9543 -23.1885
rtoes -0.289466
lfemur -70.13 -0.0187897 -21.014
ltibia 81.4201
lfoot -35.8579 3.66825
ltoes -26.2253
243
root 9.13202 12.9986 23.0246 205.108 -4.3981 -178.64
lowerback 26.4097 1.70202 0.945299
upperback -1.65563 2.45967 0.364113
thorax -16.091 0.952515 -1.04786
lowerneck -7.70034 -3.40442 -6.09029
upperneck -22.9791 -6.33426 6.85598
head -5.30133 -4.30812 3.44686
rclavicle -1.13307e-014 -7.95139e-016
rhumerus -7.42344 3.68197 -84.357
rradius 28.6099
rwrist 29.3839
rhand -5.9015 -67.5278
rfingers 7.12502
rthumb 19.927 96.5261
lclavicle -1.13307e-014 -7.95139e-016
lhumerus -25.0483 9.25107 83.2258
lradius 36.0629
lwrist -10.5595
lhand -2.03359 -42.7212
lfingers 7.12502
lthumb 23.6412 -14.1547
rfemur -64.8108 -2.74117 30.6038
rtibia 80.3898
rfoot -32.892 -23.4188
rtoes -2.35425
lfemur -68.874 -0.0481944 -20.9062
ltibia 80.7684
lfoot -35.4339 2.94625
ltoes -26.2895
244
root 9.15956 13.052 23.0177 204.305 -4.95056 -178.723
lowerback 26.6592 1.71095 1.20227
upperback -1.78677 2.56514 0.359041
thorax -16.3592 0.973029 -1.24647
lowerneck -7.74799 -3.41529 -6.02738
upperneck -22.4276 -6.32143 6.31992
head -5.14527 -4.21982 3.23904
rclavicle 7.55382e-015 1.47101e-014
rhumerus -1.75206 7.01499 -86.118
rradius 29.1792
rwrist 29.4191
rhand -9.10213 -69.5536
rfingers 7.12502
rthumb 16.8481 98.8427
lclavicle 7.55382e-015 1.47101e-014
lhumerus -23.2862 4.28611 84.7288
lradius 39.9708
lwrist -7.9664
lhand 0.0607681 -41.9295
lfingers 7.12502
lthumb 25.6486 -13.6371
rfemur -63.6089 -3.25816 30.6455
rtibia 79.829
rfoot -32.1777 -23.4235
rtoes -3.27063
lfemur -67.6463 0.00456824 -20.8467
ltibia 80.0073
lfoot -34.9987 1.97138
ltoes -25.2468
245
root 9.20452 13.1519 22.9936 203.642 -5.07708 -178.575
lowerback 26.2505 2.05486 1.12641
upperback -1.74917 2.99875 0.388483
thorax -16.1038 1.17887 -1.32521
lowerneck -7.97086 -3.43372 -5.91301
upperneck -21.9781 -6.33236 5.85398
head -4.99142 -4.16761 3.04637
rclavicle 1.80894e-014 -1.19271e-014
rhumerus 4.07637 12.1033 -86.5696
rradius 30.2163
rwrist 26.9303
rhand -8.0149 -65.7176
rfingers 7.12502
rthumb 17.8945 94.9143
lclavicle 1.80894e-014 -1.19271e-014
lhumerus -21.4854 -0.605931 85.6507
lradius 44.3519
lwrist -5.19473
lhand -1.67212 -44.5375
lfingers 7.12502
lthumb 23.9878 -16.0163
rfemur -62.136 -3.1448 30.7161
rtibia 78.8747
rfoot -31.7201 -23.4742
rtoes -4.44802
lfemur -66.2026 0.745423 -20.7386
ltibia 78.9708
lfoot -34.6143 1.09347
ltoes -24.7843
246
root 9.24532 13.2343 22.9766 203.003 -5.65755 -178.607
lowerback 25.7219 2.27707 1.39553
upperback -1.33228 3.36381 0.3781
thorax -16.0183 1.32107 -1.64305
lowerneck -8.13713 -3.54264 -5.68341
upperneck -21.6493 -6.4913 5.33667
head -4.88268 -4.20026 2.82744
rclavicle -1.51076e-014 3.57812e-015
rhumerus 10.0158 15.929 -85.9189
rradius 31.6505
rwrist 25.2404
rhand -8.89739 -65.3573
rfingers 7.12502
rthumb 17.0452 94.6295
lclavicle -1.51076e-014 3.57812e-015
lhumerus -19.0894 -5.33719 85.7663
lradius 48.5701
lwrist -4.48463
lhand -2.27414 -44.3807
lfingers 7.12502
lthumb 23.4104 -15.7847
rfemur -60.822 -3.37383 30.7561
rtibia 77.9342
rfoot -31.0057 -23.5615
rtoes -5.48712
lfemur -64.939 1.00446 -20.6398
ltibia 77.8774
lfoot -33.9732 0.254283
ltoes -24.4686
247
root 9.28236 13.3155 22.9788 202.243 -6.40132 -178.721
lowerback 25.5235 2.46559 1.75889
upperback -1.19669 3.70278 0.325736
thorax -15.6999 1.44294 -2.0264
lowerneck -8.30956 -3.63247 -5.35227
upperneck -21.3897 -6.62182 4.89812
head -4.79615 -4.23557 2.6198
rclavicle 1.63003e-014 1.19271e-015
rhumerus 15.9352 18.504 -84.5644
rradius 33.4173
rwrist 26.1673
rhand -7.65002 -64.0592
rfingers 7.12502
rthumb 18.2456 93.2235
lclavicle 1.63003e-014 1.19271e-015
lhumerus -16.7578 -10.1949 85.3012
lradius 53.3461
lwrist -3.56448
lhand -4.40158 -46.5016
lfingers 7.12502
lthumb 21.3683 -17.6598
rfemur -59.502 -3.77399 30.767
rtibia 76.8965
rfoot -29.9292 -23.5548
rtoes -4.89713
lfemur -63.6684 1.09324 -20.6015
ltibia 76.672
lfoot -33.1743 -0.545612
ltoes -23.8478
248
root 9.31591 13.4109 22.9738 201.731 -7.40207 -178.965
lowerback 25.0719 2.59586 2.02613
upperback -1.17685 3.95232 0.331937
thorax -15.388 1.54483 -2.24128
lowerneck -8.56038 -3.66136 -5.13306
upperneck -20.8631 -6.60565 4.52694
head -4.61426 -4.17806 2.43861
rclavicle 8.11041e-014 -1.43125e-014
rhumerus 22.3059 21.5655 -81.4253
rradius 35.203
rwrist 26.1281
rhand -7.26298 -67.6817
rfingers 7.12502
rthumb 18.6179 96.8108
lclavicle 8.11041e-014 -1.43125e-014
lhumerus -14.5194 -14.7889 84.1507
lradius 58.6215
lwrist -2.51677
lhand -4.40898 -46.4112
lfingers 7.12502
lthumb 21.3612 -17.5686
rfemur -58.3791 -4.46647 30.7348
rtibia 75.7805
rfoot -29.0669 -23.52
rtoes -3.79183
lfemur -62.5964 0.944757 -20.6934
ltibia 75.3586
lfoot -32.1895 -1.17272
ltoes -23.8072
249
root 9.34997 13.517 22.9524 201.249 -8.38112 -179.174
lowerback 24.594 2.80599 2.25116
upperback -1.34187 4.31798 0.386605
thorax -15.2838 1.70385 -2.42125
lowerneck -8.54353 -3.70829 -5.10055
upperneck -20.2088 -6.56538 4.15992
head -4.42965 -4.07674 2.29347
rclavicle -2.54444e-014 -2.06736e-014
rhumerus 28.3553 24.2355 -77.096
rradius 37.4917
rwrist 24.1553
rhand -7.80604 -67.5413
rfingers 7.12502
rthumb 18.0955 96.7196
lclavicle -2.54444e-014 -2.06736e-014
lhumerus -12.7176 -19.1174 82.7211
lradius 64.4939
lwrist -1.34741
lhand -1.47184 -45.8534
lfingers 7.12502
lthumb 24.1799 -17.3576
rfemur -57.1369 -5.166 30.7009
rtibia 74.485
rfoot -28.1757 -23.471
rtoes -3.79923
lfemur -61.3905 0.868389 -20.7934
ltibia 73.9301
lfoot -31.0522 -2.04354
ltoes -23.2433
250
root 9.38635 13.6351 22.9202 200.68 -9.36238 -179.249
lowerback 24.2414 3.06976 2.65567
upperback -1.56206 4.80955 0.431138
thorax -15.2925 1.89897 -2.76556
lowerneck -8.31554 -3.84017 -5.01954
upperneck -19.7065 -6.6628 3.77936
head -4.322 -4.05056 2.14968
rclavicle -9.38264e-014 3.81667e-014
rhumerus 33.8212 25.3478 -72.7783
rradius 40.2613
rwrist 22.4182
rhand -8.01336 -67.565
rfingers 7.12502
rthumb 17.896 96.7616
lclavicle -9.38264e-014 3.81667e-014
lhumerus -11.146 -23.3391 81.0747
lradius 70.3274
lwrist -0.655248
lhand -1.7179 -45.4535
lfingers 7.12502
lthumb 23.9439 -16.9265
rfemur -55.6242 -5.79277 30.7591
rtibia 72.9825
rfoot -27.3056 -23.2573
rtoes -3.57965
lfemur -59.9725 0.905122 -20.7485
ltibia 72.3484
lfoot -29.8775 -3.15218
ltoes -22.227
251
root 9.42121 13.7687 22.8806 200.134 -10.4765 -179.309
lowerback 23.2364 3.42623 2.97122
upperback -1.4076 5.36283 0.655772
thorax -14.4896 2.1692 -2.80238
lowerneck -8.0731 -3.98742 -4.83819
upperneck -19.7992 -6.93923 3.0965
head -4.41344 -4.14554 1.92093
rclavicle -1.11319e-014 2.94201e-014
rhumerus 39.6121 25.1049 -67.9
rradius 42.7822
rwrist 20.8665
rhand -8.13509 -64.9986
rfingers 7.12502
rthumb 17.7789 94.2059
lclavicle -1.11319e-014 2.94201e-014
lhumerus -8.52326 -26.966 79.031
lradius 76.08
lwrist 1.33759
lhand -0.767789 -46.2943
lfingers 7.12502
lthumb 24.8548 -17.8899
rfemur -53.9482 -6.50382 30.8464
rtibia 71.2875
rfoot -26.6996 -22.879
rtoes -2.20138
lfemur -58.5264 0.889072 -20.6761
ltibia 70.6039
lfoot -28.6557 -3.95067
ltoes -23.3544
